<svg id="visual" viewBox="0 0 900 600" width="900" height="600" xmlns="http://www.w3.org/2000/svg" xmlns:xlink="http://www.w3.org/1999/xlink" version="1.1"><rect x="0" y="0" width="900" height="600" fill="#fff"></rect><defs><linearGradient id="grad1_0" x1="33.3%" y1="0%" x2="100%" y2="100%"><stop offset="20%" stop-color="#cf620c" stop-opacity="1"></stop><stop offset="80%" stop-color="#cf620c" stop-opacity="1"></stop></linearGradient></defs><defs><linearGradient id="grad1_1" x1="33.3%" y1="0%" x2="100%" y2="100%"><stop offset="20%" stop-color="#cf620c" stop-opacity="1"></stop><stop offset="80%" stop-color="#f2b087" stop-opacity="1"></stop></linearGradient></defs><defs><linearGradient id="grad1_2" x1="33.3%" y1="0%" x2="100%" y2="100%"><stop offset="20%" stop-color="#ffffff" stop-opacity="1"></stop><stop offset="80%" stop-color="#f2b087" stop-opacity="1"></stop></linearGradient></defs><defs><linearGradient id="grad2_0" x1="0%" y1="0%" x2="66.7%" y2="100%"><stop offset="20%" stop-color="#cf620c" stop-opacity="1"></stop><stop offset="80%" stop-color="#cf620c" stop-opacity="1"></stop></linearGradient></defs><defs><linearGradient id="grad2_1" x1="0%" y1="0%" x2="66.7%" y2="100%"><stop offset="20%" stop-color="#f2b087" stop-opacity="1"></stop><stop offset="80%" stop-color="#cf620c" stop-opacity="1"></stop></linearGradient></defs><defs><linearGradient id="grad2_2" x1="0%" y1="0%" x2="66.7%" y2="100%"><stop offset="20%" stop-color="#f2b087" stop-opacity="1"></stop><stop offset="80%" stop-color="#ffffff" stop-opacity="1"></stop></linearGradient></defs><g transform="translate(900, 0)"><path d="M0 432.7C-38.8 403.1 -77.6 373.5 -114.3 351.9C-151 330.3 -185.6 316.7 -215.1 296.1C-244.6 275.5 -269.1 247.9 -305 221.6C-340.9 195.3 -388.3 170.4 -411.5 133.7C-434.7 97 -433.7 48.5 -432.7 0L0 0Z" fill="#fcd7c2"></path><path d="M0 288.4C-25.9 268.7 -51.8 249 -76.2 234.6C-100.7 220.2 -123.7 211.1 -143.4 197.4C-163.1 183.7 -179.4 165.2 -203.3 147.7C-227.3 130.2 -258.9 113.6 -274.3 89.1C-289.8 64.7 -289.1 32.3 -288.4 0L0 0Z" fill="#e3894f"></path><path d="M0 144.2C-12.9 134.4 -25.9 124.5 -38.1 117.3C-50.3 110.1 -61.9 105.6 -71.7 98.7C-81.5 91.8 -89.7 82.6 -101.7 73.9C-113.6 65.1 -129.4 56.8 -137.2 44.6C-144.9 32.3 -144.6 16.2 -144.2 0L0 0Z" fill="#cf620c"></path></g><g transform="translate(0, 600)"><path d="M0 -432.7C32.4 -389.2 64.9 -345.7 110 -338.6C155.2 -331.5 213 -360.7 254.3 -350C295.6 -339.3 320.3 -288.6 335.7 -243.9C351.2 -199.2 357.3 -160.5 371.9 -120.8C386.5 -81.2 409.6 -40.6 432.7 0L0 0Z" fill="#fcd7c2"></path><path d="M0 -288.4C21.6 -259.5 43.2 -230.5 73.3 -225.7C103.4 -221 142 -240.5 169.5 -233.4C197.1 -226.2 213.6 -192.4 223.8 -162.6C234.1 -132.8 238.2 -107 247.9 -80.6C257.6 -54.1 273 -27.1 288.4 0L0 0Z" fill="#e3894f"></path><path d="M0 -144.2C10.8 -129.7 21.6 -115.2 36.7 -112.9C51.7 -110.5 71 -120.2 84.8 -116.7C98.5 -113.1 106.8 -96.2 111.9 -81.3C117.1 -66.4 119.1 -53.5 124 -40.3C128.8 -27.1 136.5 -13.5 144.2 0L0 0Z" fill="#cf620c"></path></g></svg>