<svg id="visual" viewBox="0 0 960 540" width="960" height="540" xmlns="http://www.w3.org/2000/svg" xmlns:xlink="http://www.w3.org/1999/xlink" version="1.1"><rect x="0" y="0" width="960" height="540" fill="#001122"></rect><defs><linearGradient id="grad1_0" x1="43.8%" y1="100%" x2="100%" y2="0%"><stop offset="14.444444444444446%" stop-color="#34d399" stop-opacity="1"></stop><stop offset="85.55555555555554%" stop-color="#34d399" stop-opacity="1"></stop></linearGradient></defs><defs><linearGradient id="grad1_1" x1="43.8%" y1="100%" x2="100%" y2="0%"><stop offset="14.444444444444446%" stop-color="#34d399" stop-opacity="1"></stop><stop offset="85.55555555555554%" stop-color="#008e91" stop-opacity="1"></stop></linearGradient></defs><defs><linearGradient id="grad1_2" x1="43.8%" y1="100%" x2="100%" y2="0%"><stop offset="14.444444444444446%" stop-color="#004b65" stop-opacity="1"></stop><stop offset="85.55555555555554%" stop-color="#008e91" stop-opacity="1"></stop></linearGradient></defs><defs><linearGradient id="grad1_3" x1="43.8%" y1="100%" x2="100%" y2="0%"><stop offset="14.444444444444446%" stop-color="#004b65" stop-opacity="1"></stop><stop offset="85.55555555555554%" stop-color="#001122" stop-opacity="1"></stop></linearGradient></defs><defs><linearGradient id="grad2_0" x1="0%" y1="100%" x2="56.3%" y2="0%"><stop offset="14.444444444444446%" stop-color="#34d399" stop-opacity="1"></stop><stop offset="85.55555555555554%" stop-color="#34d399" stop-opacity="1"></stop></linearGradient></defs><defs><linearGradient id="grad2_1" x1="0%" y1="100%" x2="56.3%" y2="0%"><stop offset="14.444444444444446%" stop-color="#008e91" stop-opacity="1"></stop><stop offset="85.55555555555554%" stop-color="#34d399" stop-opacity="1"></stop></linearGradient></defs><defs><linearGradient id="grad2_2" x1="0%" y1="100%" x2="56.3%" y2="0%"><stop offset="14.444444444444446%" stop-color="#008e91" stop-opacity="1"></stop><stop offset="85.55555555555554%" stop-color="#004b65" stop-opacity="1"></stop></linearGradient></defs><defs><linearGradient id="grad2_3" x1="0%" y1="100%" x2="56.3%" y2="0%"><stop offset="14.444444444444446%" stop-color="#001122" stop-opacity="1"></stop><stop offset="85.55555555555554%" stop-color="#004b65" stop-opacity="1"></stop></linearGradient></defs><g transform="translate(960, 540)"><path d="M-486 0C-486.5 -54 -486.9 -108 -462.2 -150.2C-437.5 -192.4 -387.7 -222.8 -350.3 -254.5C-312.9 -286.3 -288 -319.4 -256.9 -353.5C-225.7 -387.7 -188.5 -422.8 -144.6 -445.1C-100.8 -467.3 -50.4 -476.7 0 -486L0 0Z" fill="#002d44"></path><path d="M-364.5 0C-364.8 -40.5 -365.2 -81 -346.7 -112.6C-328.1 -144.3 -290.8 -167.1 -262.7 -190.9C-234.7 -214.7 -216 -239.5 -192.6 -265.2C-169.3 -290.8 -141.3 -317.1 -108.5 -333.8C-75.6 -350.5 -37.8 -357.5 0 -364.5L0 0Z" fill="#006c7f"></path><path d="M-243 0C-243.2 -27 -243.5 -54 -231.1 -75.1C-218.8 -96.2 -193.8 -111.4 -175.2 -127.3C-156.5 -143.1 -144 -159.7 -128.4 -176.8C-112.9 -193.8 -94.2 -211.4 -72.3 -222.5C-50.4 -233.7 -25.2 -238.3 0 -243L0 0Z" fill="#00b19a"></path><path d="M-121.5 0C-121.6 -13.5 -121.7 -27 -115.6 -37.5C-109.4 -48.1 -96.9 -55.7 -87.6 -63.6C-78.2 -71.6 -72 -79.8 -64.2 -88.4C-56.4 -96.9 -47.1 -105.7 -36.2 -111.3C-25.2 -116.8 -12.6 -119.2 0 -121.5L0 0Z" fill="#34d399"></path></g><g transform="translate(0, 0)"><path d="M486 0C489.2 56.3 492.3 112.7 462.2 150.2C432.1 187.7 368.7 206.3 334.9 243.3C301.2 280.4 297 335.9 269.2 370.5C241.4 405.1 190 418.9 141.2 434.6C92.4 450.4 46.2 468.2 0 486L0 0Z" fill="#002d44"></path><path d="M364.5 0C366.9 42.3 369.2 84.5 346.7 112.6C324.1 140.7 276.5 154.7 251.2 182.5C225.9 210.3 222.7 251.9 201.9 277.9C181.1 303.9 142.5 314.2 105.9 326C69.3 337.8 34.7 351.1 0 364.5L0 0Z" fill="#006c7f"></path><path d="M243 0C244.6 28.2 246.2 56.3 231.1 75.1C216.1 93.8 184.4 103.1 167.5 121.7C150.6 140.2 148.5 168 134.6 185.3C120.7 202.6 95 209.4 70.6 217.3C46.2 225.2 23.1 234.1 0 243L0 0Z" fill="#00b19a"></path><path d="M121.5 0C122.3 14.1 123.1 28.2 115.6 37.5C108 46.9 92.2 51.6 83.7 60.8C75.3 70.1 74.2 84 67.3 92.6C60.4 101.3 47.5 104.7 35.3 108.7C23.1 112.6 11.6 117 0 121.5L0 0Z" fill="#34d399"></path></g></svg>